
<svg xmlns="http://www.w3.org/2000/svg" xmlns:xlink="http://www.w3.org/1999/xlink" width="250px" height="103px" viewBox="0 0 247 103" version="1.1">
<g id="surface1">
<path style=" stroke:none;fill-rule:nonzero;fill:rgb(0%,0%,0%);fill-opacity:1;" d="M 4.367188 1.378906 L -0.078125 1.378906 L -0.078125 35.433594 L 20.125 35.433594 L 20.125 31.625 L 4.367188 31.625 Z M 27.859375 3.496094 C 27.859375 1.519531 26.699219 0.441406 24.71875 0.441406 C 22.734375 0.441406 21.625 1.519531 21.625 3.496094 C 21.625 5.472656 22.734375 6.601562 24.71875 6.601562 C 26.699219 6.601562 27.859375 5.472656 27.859375 3.496094 Z M 26.84375 11.257812 L 22.445312 11.257812 L 22.445312 35.433594 L 26.84375 35.433594 Z M 44.144531 31.296875 C 43.078125 31.859375 41.292969 32.46875 39.792969 32.46875 C 36.796875 32.46875 36.21875 31.058594 36.21875 28.519531 L 36.21875 14.691406 L 43.078125 14.691406 L 43.078125 11.257812 L 36.21875 11.257812 L 36.21875 3.589844 L 31.820312 4.25 L 31.820312 11.257812 L 28 11.257812 L 28 14.691406 L 31.820312 14.691406 L 31.820312 29.082031 C 31.820312 33.929688 34.1875 36 38.828125 36 C 41.148438 36 43.707031 35.199219 44.917969 34.398438 Z M 55.363281 36 C 60.339844 36 64.207031 33.691406 65.222656 28.988281 L 61.355469 28.144531 C 60.679688 30.871094 59.035156 32.421875 55.507812 32.421875 C 51.542969 32.421875 48.738281 30.496094 48.546875 24.332031 L 65.269531 24.332031 C 65.414062 23.203125 65.464844 22.121094 65.464844 21.183594 C 65.464844 15.207031 62.5625 10.742188 55.601562 10.742188 C 49.222656 10.742188 43.90625 14.550781 43.90625 23.390625 C 43.90625 30.023438 46.566406 36 55.363281 36 Z M 48.59375 20.945312 C 48.835938 16.148438 52.027344 14.21875 55.3125 14.21875 C 59.230469 14.21875 60.921875 16.621094 60.921875 20.945312 Z M 48.59375 20.945312 "/>
<path style=" stroke:none;fill-rule:nonzero;fill:rgb(0%,0%,0%);fill-opacity:1;" d="M 25.714844 67.730469 C 30.496094 65.582031 33.792969 61.40625 33.792969 54.636719 C 33.792969 47.867188 29.914062 41.734375 18.285156 41.734375 L 0.0625 41.734375 L 0.0625 87.53125 L 9.949219 87.53125 L 9.949219 70.136719 L 16.34375 70.136719 L 25.585938 87.53125 L 36.3125 87.53125 Z M 9.949219 62.480469 L 9.949219 49.578125 L 15.441406 49.578125 C 20.738281 49.578125 23.515625 51.222656 23.515625 55.585938 C 23.515625 60.773438 19.707031 62.480469 15.054688 62.480469 Z M 48.894531 88.289062 C 56.90625 88.289062 61.945312 84.304688 63.171875 78.167969 L 54.96875 76.207031 C 54.320312 78.988281 52.964844 80.886719 49.472656 80.886719 C 45.210938 80.886719 42.882812 78.863281 42.691406 73.425781 L 63.171875 73.425781 C 63.300781 72.285156 63.367188 70.199219 63.367188 69.121094 C 63.367188 59.949219 59.101562 53.878906 48.894531 53.878906 C 39.847656 53.878906 32.417969 59.253906 32.417969 71.148438 C 32.417969 80.066406 36.421875 88.289062 48.894531 88.289062 Z M 42.820312 67.351562 C 42.882812 62.542969 45.597656 60.773438 48.375 60.773438 C 51.542969 60.773438 53.285156 62.605469 53.285156 67.351562 Z M 77.425781 53.878906 C 67.800781 53.878906 62.4375 59.066406 62.4375 66.085938 C 62.4375 70.261719 64.308594 73.296875 67.347656 75.003906 C 64.179688 77.21875 62.113281 79.054688 62.113281 82.34375 C 62.113281 85.0625 63.726562 86.960938 67.023438 87.910156 L 67.023438 88.164062 C 63.339844 88.859375 60.949219 91.007812 60.949219 94.109375 C 60.949219 98.660156 64.828125 101.761719 77.167969 101.761719 C 87.054688 101.761719 94.742188 98.660156 94.742188 90.566406 C 94.742188 83.921875 90.609375 81.519531 83.4375 81.078125 L 73.871094 80.507812 C 71.417969 80.382812 70.835938 79.75 70.835938 78.800781 C 70.835938 77.976562 71.484375 77.34375 72.0625 76.777344 C 73.9375 77.28125 75.421875 77.472656 77.6875 77.472656 C 86.34375 77.472656 92.484375 73.042969 92.484375 65.644531 C 92.484375 62.988281 91.640625 60.394531 89.703125 58.242188 C 91.578125 57.671875 93.257812 57.546875 95.261719 57.738281 L 95.261719 51.476562 C 94.292969 51.09375 93.386719 50.90625 92.546875 50.90625 C 89.382812 50.90625 87.507812 53.433594 86.34375 55.902344 C 84.148438 54.445312 81.109375 53.878906 77.425781 53.878906 Z M 83.566406 65.582031 C 83.566406 68.804688 81.175781 70.640625 77.6875 70.640625 C 73.550781 70.640625 71.675781 68.871094 71.675781 65.582031 C 71.675781 62.039062 74.324219 60.582031 77.816406 60.582031 C 81.367188 60.582031 83.566406 62.164062 83.566406 65.582031 Z M 85.246094 92.273438 C 85.246094 94.992188 82.273438 95.625 77.945312 95.625 C 73.421875 95.625 69.738281 94.867188 69.738281 92.273438 C 69.738281 91.070312 70.511719 89.996094 71.742188 89.113281 L 81.109375 89.679688 C 84.601562 89.871094 85.246094 91.007812 85.246094 92.273438 Z M 124.785156 65.011719 C 124.785156 57.484375 121.554688 53.878906 114.121094 53.878906 C 109.535156 53.878906 105.851562 55.648438 103.398438 57.863281 L 102.878906 54.574219 L 94.222656 54.574219 L 94.222656 87.53125 L 103.976562 87.53125 L 103.976562 64.1875 C 105.269531 63.050781 107.921875 61.59375 110.570312 61.59375 C 113.605469 61.59375 115.027344 63.113281 115.027344 66.65625 L 115.027344 87.53125 L 124.785156 87.53125 Z M 138.523438 88.289062 C 146.859375 88.289062 153.386719 84.683594 153.386719 77.21875 C 153.386719 69.503906 147.117188 68.238281 141.5625 67.226562 C 137.363281 66.464844 134.648438 65.960938 134.648438 63.367188 C 134.648438 61.53125 136.003906 60.203125 139.234375 60.203125 C 142.789062 60.203125 144.210938 62.164062 144.984375 65.011719 L 152.804688 62.734375 C 151.1875 57.167969 146.988281 53.878906 139.363281 53.878906 C 131.804688 53.878906 125.34375 57.359375 125.34375 64.570312 C 125.34375 72.601562 132.128906 73.804688 137.492188 74.816406 C 141.300781 75.511719 143.953125 76.207031 143.953125 78.738281 C 143.953125 80.886719 142.144531 81.964844 138.847656 81.964844 C 134.261719 81.964844 132.902344 79.496094 132.128906 76.902344 L 124.246094 79.558594 C 125.34375 85.0625 129.929688 88.289062 138.523438 88.289062 Z M 163.382812 39.773438 L 153.628906 39.773438 L 153.628906 87.53125 L 163.382812 87.53125 L 163.382812 75.574219 L 166.613281 72.476562 L 175.339844 87.53125 L 186.128906 87.53125 L 174.109375 66.402344 L 185.289062 54.574219 L 174.5 54.574219 L 163.382812 66.085938 Z M 211.511719 65.515625 C 211.511719 57.292969 206.988281 53.878906 198.007812 53.878906 C 188.832031 53.878906 184.824219 57.546875 183.792969 63.746094 L 192.0625 65.328125 C 192.707031 62.101562 193.9375 60.773438 197.167969 60.773438 C 201.429688 60.773438 201.949219 63.050781 201.949219 66.78125 L 201.949219 67.984375 C 193.289062 67.921875 182.628906 69.4375 182.628906 79.496094 C 182.628906 82.785156 184.242188 88.289062 192.644531 88.289062 C 197.296875 88.289062 200.527344 86.769531 202.660156 84.050781 C 203.371094 87.148438 205.695312 88.226562 209.574219 88.226562 C 211.640625 88.226562 214.484375 87.59375 215.777344 86.960938 L 215.515625 81.457031 C 214.679688 81.710938 214.097656 81.835938 213.515625 81.835938 C 211.835938 81.835938 211.511719 81.078125 211.511719 79.308594 Z M 202.011719 79.371094 C 200.980469 80.382812 198.71875 81.519531 196.390625 81.519531 C 193.289062 81.519531 192.449219 79.8125 192.449219 77.914062 C 192.449219 74.5625 195.808594 73.675781 200.460938 73.550781 L 202.011719 73.550781 Z M 214.917969 100.9375 L 224.351562 100.9375 L 224.351562 85.125 C 226.484375 87.023438 229.132812 88.289062 233.265625 88.289062 C 240.699219 88.289062 246.964844 83.417969 246.964844 70.324219 C 246.964844 58.179688 241.472656 53.878906 234.300781 53.878906 C 230.554688 53.878906 226.675781 55.078125 223.769531 57.925781 L 223.1875 54.574219 L 214.917969 54.574219 Z M 224.542969 64 C 226.03125 62.796875 228.550781 61.46875 230.8125 61.46875 C 234.753906 61.46875 236.757812 63.9375 236.757812 70.578125 C 236.757812 76.964844 234.945312 80.632812 230.425781 80.632812 C 228.035156 80.632812 225.511719 79.308594 224.542969 78.421875 Z M 224.542969 64 "/>
</g>
</svg>
